<svg xmlns="http://www.w3.org/2000/svg" width="375" viewBox="0 0 375 375" height="375" version="1.0"><defs><clipPath id="a"><path d="M 119 123 L 255 123 L 255 233.855469 L 119 233.855469 Z M 119 123"/></clipPath><clipPath id="b"><path d="M 102.957031 123 L 137 123 L 137 167 L 102.957031 167 Z M 102.957031 123"/></clipPath><clipPath id="c"><path d="M 237 123 L 271.707031 123 L 271.707031 167 L 237 167 Z M 237 123"/></clipPath><clipPath id="d"><path d="M 102.957031 81.605469 L 151 81.605469 L 151 124 L 102.957031 124 Z M 102.957031 81.605469"/></clipPath><clipPath id="e"><path d="M 136 81.605469 L 176 81.605469 L 176 124 L 136 124 Z M 136 81.605469"/></clipPath><clipPath id="f"><path d="M 170 81.605469 L 205 81.605469 L 205 124 L 170 124 Z M 170 81.605469"/></clipPath><clipPath id="g"><path d="M 199 81.605469 L 238 81.605469 L 238 124 L 199 124 Z M 199 81.605469"/></clipPath><clipPath id="h"><path d="M 224 81.605469 L 271.707031 81.605469 L 271.707031 124 L 224 124 Z M 224 81.605469"/></clipPath><clipPath id="i"><path d="M 195 183 L 238 183 L 238 233.855469 L 195 233.855469 Z M 195 183"/></clipPath></defs><path fill="#FFF" d="M-37.5 -37.5H412.5V412.5H-37.5z"/><path fill="#FFF" d="M-37.5 -37.5H412.5V412.5H-37.5z"/><path fill="#FFF" d="M-37.5 -37.5H412.5V412.5H-37.5z"/><g fill="#F0F"><g><g><path d="M 5.269531 0 L 11.921875 0 C 17.488281 0 20.285156 -3.03125 20.285156 -6.851562 C 20.285156 -9.515625 18.871094 -11.492188 15.773438 -11.789062 L 15.773438 -11.921875 C 18.078125 -12.679688 19.660156 -14.722656 19.660156 -17.652344 C 19.660156 -20.945312 17.519531 -22.820312 11.261719 -22.820312 L 5.335938 -22.820312 C 3.523438 -22.820312 2.535156 -21.800781 2.535156 -19.925781 C 2.535156 -11.03125 2.503906 -5.796875 2.46875 -2.800781 C 2.46875 -0.988281 3.457031 0 5.269531 0 Z M 8.332031 -13.632812 C 8.332031 -16.003906 8.332031 -17.488281 8.363281 -18.871094 L 10.242188 -18.871094 C 12.613281 -18.871094 13.832031 -18.210938 13.832031 -16.632812 C 13.832031 -15.015625 12.746094 -13.632812 9.351562 -13.632812 Z M 8.363281 -3.917969 C 8.332031 -5.300781 8.332031 -6.683594 8.332031 -8.070312 L 8.332031 -10.570312 L 10.734375 -10.570312 C 13.335938 -10.570312 14.589844 -9.285156 14.589844 -7.375 C 14.589844 -5.171875 13.007812 -3.917969 10.242188 -3.917969 Z M 8.363281 -3.917969" transform="translate(123.967 265.675)"/></g></g></g><g fill="#F0F"><g><g><path d="M 12.382812 -18.476562 C 12.183594 -18.507812 11.921875 -18.539062 11.558594 -18.539062 C 9.386719 -18.539062 7.871094 -16.632812 7.34375 -13.929688 L 7.246094 -13.996094 L 7.246094 -16.136719 C 7.246094 -17.519531 6.289062 -18.246094 4.578125 -18.246094 C 2.863281 -18.246094 1.910156 -17.257812 1.910156 -15.445312 C 1.941406 -13.335938 1.976562 -11.296875 1.976562 -9.121094 C 1.976562 -6.949219 1.941406 -4.90625 1.910156 -2.800781 C 1.910156 -0.988281 2.898438 0 4.710938 0 L 4.808594 0 C 6.652344 0 7.605469 -1.019531 7.542969 -2.863281 C 7.507812 -4.25 7.476562 -5.597656 7.476562 -6.949219 C 7.476562 -7.640625 7.507812 -8.398438 7.507812 -9.121094 L 7.507812 -9.914062 C 8.101562 -11.691406 9.121094 -12.644531 10.570312 -12.644531 C 11.066406 -12.644531 11.460938 -12.582031 11.886719 -12.449219 C 12.710938 -12.152344 13.734375 -12.613281 14.160156 -14.324219 C 14.359375 -15.082031 14.390625 -15.875 14.160156 -16.632812 C 13.734375 -17.914062 12.976562 -18.34375 12.382812 -18.476562 Z M 12.382812 -18.476562" transform="translate(145.733 265.675)"/></g></g></g><g fill="#F0F"><g><g><path d="M 6.882812 0.328125 C 8.726562 0.328125 10.503906 -0.296875 11.824219 -1.582031 C 11.855469 -1.316406 11.886719 -1.054688 11.988281 -0.789062 C 12.121094 -0.261719 13.007812 0 14.6875 0 L 14.984375 0 C 16.761719 0 17.683594 -1.019531 17.585938 -2.863281 C 17.488281 -5.105469 17.488281 -7.96875 17.488281 -11.921875 C 17.488281 -16.335938 15.050781 -18.507812 10.144531 -18.507812 C 5.335938 -18.507812 2.800781 -17.222656 2.042969 -14.65625 C 1.515625 -12.84375 2.863281 -11.789062 4.710938 -11.789062 L 5.039062 -11.789062 C 6.652344 -11.789062 6.785156 -12.679688 7.738281 -14.128906 C 8.132812 -14.722656 8.859375 -14.953125 9.714844 -14.953125 C 11.164062 -14.953125 11.824219 -14.226562 11.824219 -11.824219 L 11.824219 -10.703125 C 4.414062 -10.902344 1.019531 -8.761719 1.019531 -4.644531 C 1.019531 -1.1875 3.621094 0.328125 6.882812 0.328125 Z M 8.628906 -3.390625 C 7.082031 -3.390625 6.257812 -4.28125 6.257812 -5.53125 C 6.257812 -7.640625 8.890625 -8.003906 11.886719 -8.070312 L 11.886719 -5.105469 C 11.132812 -4.019531 10.109375 -3.390625 8.628906 -3.390625 Z M 8.628906 -3.390625" transform="translate(160.09 265.675)"/></g></g></g><g fill="#F0F"><g><g><path d="M 18.308594 -2.832031 C 18.277344 -5.796875 18.210938 -8.5625 18.277344 -10.867188 C 18.410156 -16.300781 16.664062 -18.507812 13.207031 -18.507812 C 10.671875 -18.507812 8.726562 -17.421875 7.476562 -15.117188 L 7.375 -15.117188 C 7.375 -15.773438 7.375 -16.269531 7.375 -16.695312 C 7.410156 -17.683594 6.421875 -18.246094 4.675781 -18.246094 C 2.898438 -18.246094 1.910156 -17.257812 1.910156 -15.445312 C 1.941406 -13.335938 1.976562 -11.261719 1.976562 -9.089844 C 1.976562 -6.949219 1.941406 -4.90625 1.910156 -2.800781 C 1.910156 -0.988281 2.898438 0 4.710938 0 L 4.90625 0 C 6.71875 0 7.707031 -0.988281 7.707031 -2.800781 C 7.671875 -4.90625 7.640625 -6.949219 7.671875 -9.089844 C 7.671875 -10.011719 7.707031 -10.964844 7.707031 -11.855469 C 8.234375 -13.042969 9.1875 -13.734375 10.441406 -13.765625 C 11.921875 -13.796875 12.679688 -13.074219 12.679688 -10.933594 C 12.679688 -8.660156 12.644531 -5.863281 12.613281 -2.832031 C 12.613281 -0.988281 13.601562 0 15.414062 0 L 15.511719 0 C 17.324219 0 18.308594 -0.988281 18.308594 -2.832031 Z M 18.308594 -2.832031" transform="translate(179.256 265.675)"/></g></g></g><g fill="#F0F"><g><g><path d="M 15.28125 -24.007812 L 15.082031 -24.007812 C 13.273438 -24.007812 12.285156 -23.019531 12.285156 -21.207031 C 12.316406 -19.464844 12.316406 -17.75 12.351562 -16.039062 C 11.460938 -17.519531 10.011719 -18.476562 8.199219 -18.476562 C 4.3125 -18.476562 1.1875 -15.214844 1.1875 -8.695312 C 1.1875 -1.777344 4.3125 0.363281 8.300781 0.363281 C 10.539062 0.363281 12.019531 -0.757812 12.910156 -1.941406 C 13.007812 -1.613281 13.074219 -1.285156 13.171875 -0.953125 C 13.402344 -0.296875 14.261719 0 15.808594 0 C 17.289062 0 18.078125 -0.988281 18.046875 -2.800781 C 18.015625 -4.675781 17.980469 -6.488281 17.980469 -8.429688 C 17.980469 -12.777344 18.046875 -16.894531 18.078125 -21.207031 C 18.078125 -23.019531 17.09375 -24.007812 15.28125 -24.007812 Z M 9.847656 -4.28125 C 7.738281 -4.28125 6.519531 -5.53125 6.519531 -9.023438 C 6.519531 -13.074219 8.003906 -14.027344 9.714844 -14.027344 C 10.902344 -14.027344 11.953125 -13.566406 12.351562 -12.21875 C 12.351562 -10.964844 12.351562 -9.714844 12.316406 -8.429688 C 12.285156 -7.34375 12.25 -6.324219 12.25 -5.269531 C 11.65625 -4.609375 10.964844 -4.28125 9.847656 -4.28125 Z M 9.847656 -4.28125" transform="translate(199.474 265.675)"/></g></g></g><g fill="#F0F"><g><g><path d="M 18.957031 -27.023438 C 18.6875 -19.136719 17.433594 -15.238281 15.238281 -15.238281 C 12.101562 -15.238281 11.652344 -19.761719 11.160156 -27.15625 C 11.023438 -29.710938 9.679688 -31.011719 7.261719 -31.011719 L 5.332031 -31.011719 C 2.777344 -31.011719 1.480469 -29.578125 1.746094 -27.066406 C 2.777344 -19.089844 4.839844 -12.191406 10.039062 -9.636719 C 9.949219 -7.484375 9.859375 -5.648438 9.8125 -3.808594 C 9.769531 -1.34375 11.113281 0 13.578125 0 L 14.386719 0 C 16.851562 0 18.195312 -1.34375 18.148438 -3.808594 C 18.105469 -5.691406 18.058594 -7.574219 17.96875 -9.769531 C 23.4375 -12.277344 25.363281 -19.40625 26.261719 -27.066406 C 26.574219 -29.578125 25.277344 -31.011719 22.765625 -31.011719 C 20.300781 -31.011719 19.046875 -29.621094 18.957031 -27.023438 Z M 18.957031 -27.023438" transform="translate(218.8 269.186)"/></g></g></g><g clip-path="url(#a)"><path fill="#FF1616" d="M 246.394531 233.855469 L 128.269531 233.855469 C 123.628906 233.855469 119.832031 230.050781 119.832031 225.398438 L 119.832031 123.898438 L 254.832031 123.898438 L 254.832031 225.398438 C 254.832031 230.050781 251.035156 233.855469 246.394531 233.855469 Z M 246.394531 233.855469"/></g><g clip-path="url(#b)"><path fill="#275F70" d="M 119.832031 166.191406 C 110.550781 166.191406 102.957031 158.578125 102.957031 149.273438 L 102.957031 123.898438 L 136.707031 123.898438 L 136.707031 149.273438 C 136.707031 158.578125 129.113281 166.191406 119.832031 166.191406 Z M 119.832031 166.191406"/></g><path fill="#FFBD59" d="M 153.582031 166.191406 C 144.300781 166.191406 136.707031 158.578125 136.707031 149.273438 L 136.707031 123.898438 L 170.457031 123.898438 L 170.457031 149.273438 C 170.457031 158.578125 162.863281 166.191406 153.582031 166.191406 Z M 153.582031 166.191406"/><path fill="#275F70" d="M 187.332031 166.191406 C 178.050781 166.191406 170.457031 158.578125 170.457031 149.273438 L 170.457031 123.898438 L 204.207031 123.898438 L 204.207031 149.273438 C 204.207031 158.578125 196.613281 166.191406 187.332031 166.191406 Z M 187.332031 166.191406"/><path fill="#FFBD59" d="M 221.082031 166.191406 C 211.800781 166.191406 204.207031 158.578125 204.207031 149.273438 L 204.207031 123.898438 L 237.957031 123.898438 L 237.957031 149.273438 C 237.957031 158.578125 230.363281 166.191406 221.082031 166.191406 Z M 221.082031 166.191406"/><g clip-path="url(#c)"><path fill="#275F70" d="M 254.832031 166.191406 C 245.550781 166.191406 237.957031 158.578125 237.957031 149.273438 L 237.957031 123.898438 L 271.707031 123.898438 L 271.707031 149.273438 C 271.707031 158.578125 264.113281 166.191406 254.832031 166.191406 Z M 254.832031 166.191406"/></g><g clip-path="url(#d)"><path fill="#275F70" d="M 136.707031 123.898438 L 102.957031 123.898438 L 122.785156 86.257812 C 124.050781 83.296875 127.003906 81.605469 130.378906 81.605469 L 150.207031 81.605469 Z M 136.707031 123.898438"/></g><g clip-path="url(#e)"><path fill="#FFBD59" d="M 170.457031 123.898438 L 136.707031 123.898438 L 150.207031 81.605469 L 175.097656 81.605469 Z M 170.457031 123.898438"/></g><g clip-path="url(#f)"><path fill="#275F70" d="M 204.207031 123.898438 L 170.457031 123.898438 L 175.097656 81.605469 L 199.566406 81.605469 Z M 204.207031 123.898438"/></g><g clip-path="url(#g)"><path fill="#FFBD59" d="M 237.957031 123.898438 L 204.207031 123.898438 L 199.566406 81.605469 L 224.457031 81.605469 Z M 237.957031 123.898438"/></g><g clip-path="url(#h)"><path fill="#275F70" d="M 271.707031 123.898438 L 237.957031 123.898438 L 224.457031 81.605469 L 244.285156 81.605469 C 247.238281 81.605469 250.191406 83.296875 251.878906 86.257812 Z M 271.707031 123.898438"/></g><g clip-path="url(#i)"><path fill="#FFF" d="M 237.957031 233.855469 L 195.769531 233.855469 L 195.769531 204.253906 C 195.769531 192.410156 205.050781 183.105469 216.863281 183.105469 C 228.675781 183.105469 237.957031 192.410156 237.957031 204.253906 Z M 237.957031 233.855469"/></g><path fill="#FFBD59" d="M 145.144531 221.167969 C 143.878906 221.167969 142.613281 220.324219 141.769531 219.476562 L 133.332031 206.789062 C 132.066406 204.675781 132.488281 202.136719 134.597656 200.871094 C 136.707031 199.601562 139.238281 200.023438 140.503906 202.136719 L 148.941406 214.824219 C 150.207031 216.941406 149.785156 219.476562 147.675781 220.746094 C 146.832031 220.746094 145.988281 221.167969 145.144531 221.167969 Z M 145.144531 221.167969"/><path fill="#FFBD59" d="M 162.019531 221.167969 C 160.753906 221.167969 159.488281 220.746094 158.644531 219.476562 L 137.550781 189.875 C 136.285156 188.183594 136.707031 185.222656 138.394531 183.953125 C 140.082031 182.683594 143.035156 183.105469 144.300781 184.796875 L 165.394531 214.402344 C 166.660156 216.09375 166.238281 219.054688 164.550781 220.324219 C 163.707031 220.746094 162.863281 221.167969 162.019531 221.167969 Z M 162.019531 221.167969"/></svg>